<svg width="2872" height="4725" viewBox="0 0 2872 4725" fill="none" xmlns="http://www.w3.org/2000/svg">
<g clip-path="url(#clip0_327_2700)">
<path d="M2872 4725H0V0H2872V4725ZM944.402 200C891.245 200 848.152 243.334 848.152 296.491C848.152 322.067 858.295 346.699 876.357 364.807L984.341 473.06L1095.13 584.123C1134.2 623.294 1197.65 623.294 1236.72 584.123L1276.71 544.037C1315.78 504.867 1379.24 504.867 1418.31 544.037L1458.3 584.123C1497.37 623.294 1560.82 623.294 1599.89 584.123L1639.88 544.037C1678.95 504.867 1742.41 504.867 1781.48 544.037L1864.06 626.824C1882.12 644.926 1906.63 655.1 1932.2 655.1C1985.36 655.1 2028.45 611.766 2028.45 558.608C2028.45 533.033 2018.31 508.401 2000.25 490.294L1892.26 382.04L1781.48 270.977C1742.41 231.806 1678.95 231.806 1639.88 270.977L1599.89 311.063C1560.82 350.234 1497.37 350.234 1458.3 311.063L1418.31 270.977C1379.24 231.806 1315.78 231.806 1276.71 270.977L1236.72 311.063C1197.65 350.234 1134.2 350.234 1095.13 311.063L1012.55 228.276C994.489 210.174 969.971 200 944.402 200Z" fill="url(#paint0_linear_327_2700)" fill-opacity="0.8"/>
<path d="M887.894 242.516C918.585 209.542 970.667 209.097 1001.92 241.54L1090.73 333.743C1131.75 376.329 1199.98 376.191 1240.83 333.44L1278.1 294.431C1315.91 254.858 1379.11 254.858 1416.92 294.431L1453.9 333.136C1494.86 376.006 1563.32 376.006 1604.29 333.136L1642.81 292.82C1680.06 253.835 1742.11 253.168 1780.19 291.344L1889.41 400.847L1987.23 504.021C2015.98 534.354 2015.38 582.062 1985.87 611.662C1956.1 641.526 1907.87 641.98 1877.54 612.683L1784.24 522.552C1743.39 483.099 1678.45 483.702 1638.35 523.906L1597.06 565.299C1559.55 602.902 1498.64 602.902 1461.13 565.299L1421.14 525.212C1380.51 484.474 1314.51 484.475 1273.88 525.212L1233.89 565.299C1196.38 602.902 1135.47 602.902 1097.96 565.299L987.209 454.271L888.386 350.032C859.861 319.944 859.646 272.864 887.894 242.516Z" stroke="url(#paint1_linear_327_2700)" stroke-opacity="0.8" stroke-width="8"/>
</g>
<defs>
<linearGradient id="paint0_linear_327_2700" x1="4448.38" y1="-355.999" x2="-1863.91" y2="1059.6" gradientUnits="userSpaceOnUse">
<stop stop-color="#F7EEF3"/>
<stop offset="1" stop-color="#7CC1CD"/>
</linearGradient>
<linearGradient id="paint1_linear_327_2700" x1="2774" y1="200.001" x2="134.052" y2="1098.18" gradientUnits="userSpaceOnUse">
<stop stop-color="#F7EEF3"/>
<stop offset="1" stop-color="#7CC1CD"/>
</linearGradient>
<clipPath id="clip0_327_2700">
<rect width="2872" height="4725" fill="white"/>
</clipPath>
</defs>
</svg>
