<svg width="130" height="50" viewBox="0 0 130 50" fill="none" xmlns="http://www.w3.org/2000/svg">
<path d="M27.9289 12.9289L17.9289 2.92893C16.0536 1.05357 13.51 0 10.8579 0H10C4.47715 0 0 4.47715 0 10V10.8579C0 13.51 1.05357 16.0536 2.92893 17.9289L15 30L27.9289 42.9289C31.8342 46.8342 38.1658 46.8342 42.0711 42.9289L47.9289 37.0711C51.8342 33.1658 58.1658 33.1658 62.0711 37.0711L67.9289 42.9289C71.8342 46.8342 78.1658 46.8342 82.0711 42.9289L87.9289 37.0711C91.8342 33.1658 98.1658 33.1658 102.071 37.0711L112.071 47.0711C113.946 48.9464 116.49 50 119.142 50H120C125.523 50 130 45.5228 130 40V39.1421C130 36.49 128.946 33.9464 127.071 32.0711L115 20L102.071 7.07107C98.1658 3.16582 91.8342 3.16582 87.9289 7.07106L82.0711 12.9289C78.1658 16.8342 71.8342 16.8342 67.9289 12.9289L62.0711 7.07107C58.1658 3.16582 51.8342 3.16582 47.9289 7.07106L42.0711 12.9289C38.1658 16.8342 31.8342 16.8342 27.9289 12.9289Z" fill="#207888"/>
</svg>
